<svg width="680" height="340" xmlns="http://www.w3.org/2000/svg">
  <style>
    .bg { fill: #282a36; }
    .title-bar { fill: #1e1f29; }
    .dot-red { fill: #ff5555; }
    .dot-yellow { fill: #f1fa8c; }
    .dot-green { fill: #50fa7b; }
    .text { font-family: 'SF Mono', 'Fira Code', 'Cascadia Code', monospace; font-size: 13px; }
    .comment { fill: #6272a4; }
    .purple { fill: #bd93f9; }
    .green { fill: #50fa7b; }
    .yellow { fill: #f1fa8c; }
    .orange { fill: #ffb86c; }
    .white { fill: #f8f8f2; }
    .cyan { fill: #8be9fd; }
    .pink { fill: #ff79c6; }
  </style>

  <rect class="bg" width="680" height="340" rx="8" />
  <rect class="title-bar" width="680" height="32" rx="8" />
  <rect class="bg" y="24" width="680" height="8" />

  <circle class="dot-red" cx="20" cy="16" r="6" />
  <circle class="dot-yellow" cx="40" cy="16" r="6" />
  <circle class="dot-green" cx="60" cy="16" r="6" />

  <text class="text comment" x="260" y="20">fs-guard.config.ts</text>

  <text class="text comment" x="20" y="60">// fs-guard.config.ts</text>

  <text class="text purple" x="20" y="88">export default</text>
  <text class="text white" x="140" y="88">{</text>

  <text class="text cyan" x="40" y="116">root</text>
  <text class="text white" x="72" y="116">:</text>
  <text class="text yellow" x="82" y="116">"src"</text>
  <text class="text white" x="118" y="116">,</text>

  <text class="text cyan" x="40" y="144">rules</text>
  <text class="text white" x="80" y="144">: {</text>

  <text class="text green" x="60" y="172">"pages"</text>
  <text class="text white" x="116" y="172">:   [</text>
  <text class="text yellow" x="140" y="172">"index.tsx"</text>
  <text class="text white" x="236" y="172">,</text>
  <text class="text yellow" x="246" y="172">"*"</text>
  <text class="text white" x="266" y="172">],</text>

  <text class="text green" x="60" y="200">"components"</text>
  <text class="text white" x="168" y="200">:</text>
  <text class="text yellow" x="178" y="200">"*"</text>
  <text class="text white" x="198" y="200">,</text>

  <text class="text green" x="60" y="228">"services"</text>
  <text class="text white" x="148" y="228">: [</text>
  <text class="text yellow" x="170" y="228">"*.ts"</text>
  <text class="text white" x="214" y="228">],</text>

  <text class="text green" x="60" y="256">"hooks"</text>
  <text class="text white" x="116" y="256">:    [</text>
  <text class="text yellow" x="146" y="256">"use*.ts"</text>
  <text class="text white" x="220" y="256">],</text>

  <text class="text white" x="40" y="284">},</text>

  <text class="text white" x="20" y="312">};</text>
</svg>
